<?xml version="1.0" standalone="no"?>
<!DOCTYPE svg PUBLIC "-//W3C//DTD SVG 20010904//EN"
 "http://www.w3.org/TR/2001/REC-SVG-20010904/DTD/svg10.dtd">
<svg version="1.0" xmlns="http://www.w3.org/2000/svg"
 width="256.000000pt" height="256.000000pt" viewBox="0 0 256.000000 256.000000"
 preserveAspectRatio="xMidYMid meet">
<metadata>
Created by potrace 1.14, written by Peter Selinger 2001-2017
</metadata>
<g transform="translate(0.000000,256.000000) scale(0.100000,-0.100000)"
fill="#000000" stroke="none">
<path d="M1250 2544 c0 -7 -13 -15 -29 -19 -16 -3 -41 -17 -55 -30 -14 -13
-26 -19 -26 -12 0 8 -3 7 -9 -2 -5 -7 -14 -11 -19 -7 -7 4 -10 -1 -7 -12 3
-15 -2 -18 -21 -16 -15 1 -22 -2 -17 -8 4 -7 -1 -9 -15 -6 -16 5 -20 2 -17
-14 4 -17 2 -18 -13 -7 -9 7 -14 9 -10 5 8 -9 -31 -43 -44 -38 -5 1 -8 -2 -8
-8 0 -5 -7 -7 -15 -4 -8 4 -15 1 -15 -6 0 -6 -4 -8 -10 -5 -5 3 -10 1 -10 -5
0 -7 -7 -9 -16 -6 -15 6 -15 4 -3 -11 7 -10 9 -15 5 -11 -5 4 -16 2 -24 -5
-13 -10 -14 -9 -7 3 7 12 6 13 -7 3 -8 -7 -19 -9 -23 -5 -5 4 -5 1 -1 -5 4 -7
2 -13 -4 -13 -6 0 -9 -4 -6 -9 3 -5 0 -9 -7 -8 -34 1 -47 -5 -47 -20 0 -15 -2
-16 -10 -3 -8 13 -10 12 -10 -3 0 -10 -4 -16 -9 -13 -5 3 -12 -1 -15 -9 -4
-12 -10 -13 -25 -6 -14 8 -18 7 -17 -2 0 -6 -2 -12 -6 -12 -3 0 -18 -11 -32
-24 -14 -13 -32 -21 -40 -18 -9 4 -15 1 -13 -6 1 -7 -6 -11 -15 -11 -10 1 -18
-2 -18 -8 0 -5 -4 -7 -9 -3 -5 3 -16 -3 -23 -13 -8 -12 -22 -18 -38 -16 -14 1
-19 0 -12 -2 18 -8 15 -27 -4 -20 -8 3 -13 2 -10 -3 7 -11 -49 -32 -60 -23 -4
4 -4 1 0 -5 11 -20 -3 -36 -20 -22 -11 9 -14 9 -14 -1 0 -7 -6 -10 -14 -7 -10
4 -14 0 -11 -12 2 -14 -2 -17 -21 -15 -15 1 -22 -2 -17 -9 4 -7 0 -8 -11 -4
-11 5 -15 3 -10 -5 5 -7 2 -9 -9 -5 -12 4 -14 2 -10 -11 3 -9 3 -14 -2 -10 -4
4 -15 2 -23 -5 -13 -10 -15 -9 -8 3 4 9 2 8 -7 -2 -8 -10 -18 -14 -22 -10 -5
4 -6 0 -2 -9 3 -11 0 -16 -10 -15 -8 0 -19 -9 -24 -22 -7 -17 -6 -21 4 -15 6
4 4 -6 -7 -21 -10 -16 -14 -26 -8 -22 5 3 12 -1 16 -9 3 -8 1 -15 -3 -15 -14
0 -21 -29 -9 -36 6 -4 8 -3 4 4 -3 6 -3 13 2 16 4 2 8 -6 8 -20 0 -13 -5 -24
-11 -24 -5 0 -1 -8 10 -16 13 -11 15 -14 5 -12 -9 2 -17 -1 -18 -7 -1 -5 2
-10 7 -10 5 0 13 -4 18 -8 4 -5 1 -7 -7 -5 -9 2 -14 -3 -11 -12 8 -35 6 -56
-9 -68 -11 -9 -12 -12 -1 -10 7 2 15 -5 16 -15 2 -9 0 -15 -5 -12 -4 3 -10 -2
-13 -10 -4 -8 -1 -12 6 -9 8 3 12 -7 12 -30 0 -19 -3 -32 -6 -30 -4 2 -9 -3
-12 -11 -4 -9 -1 -12 9 -8 9 3 13 0 9 -8 -7 -23 -12 -99 -6 -94 4 2 7 -5 7
-16 0 -10 -5 -19 -10 -19 -5 0 -1 -9 8 -19 10 -11 13 -22 8 -25 -6 -3 -9 -14
-7 -24 1 -9 -1 -27 -6 -39 -5 -13 -4 -25 2 -28 5 -4 7 -11 4 -16 -4 -5 -1 -9
5 -9 6 0 8 -5 4 -12 -4 -6 -3 -8 4 -4 6 3 18 -1 26 -10 12 -11 16 -12 16 -2 0
10 3 10 9 -2 6 -8 7 -18 4 -24 -4 -5 -1 -6 6 -2 7 5 21 0 33 -11 12 -10 18
-12 14 -5 -7 12 -4 12 15 1 13 -7 28 -12 33 -11 5 2 3 -4 -4 -13 -11 -13 -10
-14 5 -9 14 6 16 4 10 -7 -7 -11 -5 -11 10 1 11 9 16 10 11 3 -4 -8 -1 -13 9
-13 10 0 13 -5 9 -12 -5 -8 0 -7 11 2 10 8 16 10 13 5 -4 -6 -3 -17 3 -25 6
-12 9 -12 9 -2 0 10 4 9 16 -2 8 -9 21 -13 27 -9 6 4 8 0 4 -10 -3 -9 -3 -16
1 -16 4 1 9 0 12 -1 25 -9 38 -6 33 8 -4 9 -2 13 4 9 6 -4 13 0 16 8 4 8 1 12
-6 9 -8 -3 -12 12 -13 46 -1 37 2 50 13 50 8 0 11 5 8 10 -4 6 -10 8 -14 5
-12 -7 -8 49 4 57 6 5 5 8 -3 8 -9 0 -11 7 -7 19 7 23 -29 66 -47 55 -7 -5 -8
-3 -3 6 6 10 4 12 -10 6 -15 -5 -16 -4 -6 8 11 13 9 15 -9 11 -16 -3 -20 0
-16 11 3 9 2 12 -5 9 -13 -9 -38 25 -32 42 3 7 8 11 12 8 4 -2 8 2 8 10 0 8
-3 12 -6 11 -3 -2 -6 13 -6 34 0 26 4 36 12 33 7 -3 13 0 13 6 0 6 -3 10 -7
10 -5 -1 -14 -1 -22 0 -12 1 -11 4 2 14 15 11 15 15 3 39 -12 23 -12 29 -1 38
9 8 12 25 9 51 -3 24 -1 39 6 39 6 0 8 5 4 11 -5 8 -9 8 -14 -1 -5 -9 -9 -9
-14 -1 -4 6 -2 11 4 11 7 0 9 15 6 41 -4 34 -3 40 11 35 14 -6 14 -4 2 11 -9
11 -10 14 -1 9 7 -4 12 -2 12 4 0 6 5 8 10 5 6 -3 10 -1 10 5 0 6 5 8 10 5 6
-3 10 -2 10 4 0 13 60 42 71 35 5 -3 8 0 7 8 -2 7 3 12 10 11 6 -2 12 2 12 8
0 6 7 8 16 5 8 -3 12 -2 9 4 -3 6 1 10 10 10 9 0 13 5 9 11 -4 8 1 9 16 4 14
-4 20 -3 16 3 -7 12 22 25 36 15 6 -3 8 -1 4 5 -3 6 8 17 26 26 25 13 34 14
41 4 6 -9 7 -6 4 10 -4 15 0 22 10 22 9 0 22 8 30 18 8 9 12 11 8 5 -9 -19 6
-15 35 7 14 11 31 20 38 20 6 0 12 5 12 11 0 5 -5 7 -12 3 -7 -4 -8 -3 -4 5 6
9 12 9 24 -1 10 -7 14 -8 10 -4 -11 12 29 39 44 30 8 -5 9 -2 5 9 -3 10 -2 17
2 17 5 0 12 -6 14 -12 3 -8 6 -5 6 5 1 10 6 15 11 12 6 -3 10 -1 10 6 0 8 4 8
15 -1 13 -11 14 -10 9 3 -6 16 31 43 54 39 6 -2 12 2 12 8 0 5 5 10 11 10 5 0
7 -5 3 -12 -4 -7 -3 -8 5 -4 9 6 9 11 1 21 -10 11 -8 13 9 10 12 -2 21 0 21 5
0 5 7 6 17 3 10 -4 14 -2 10 4 -4 6 1 17 10 24 12 10 14 10 9 2 -4 -7 -2 -13
3 -13 6 0 11 5 11 10 0 6 12 15 26 20 14 6 23 13 20 18 -2 4 11 8 29 8 19 0
32 -3 29 -7 -7 -11 43 -42 56 -34 5 3 10 -2 10 -12 0 -15 2 -16 10 -3 8 13 10
12 10 -4 0 -12 5 -16 15 -12 8 3 15 2 15 -2 0 -4 14 -13 30 -20 17 -8 28 -17
25 -22 -3 -5 6 -7 20 -6 21 3 55 -20 48 -31 -2 -1 -3 -6 -3 -10 0 -5 5 -1 10
7 6 10 10 11 10 3 0 -7 7 -13 15 -13 8 0 15 -4 15 -10 0 -5 7 -10 15 -10 9 0
18 -7 21 -15 5 -13 9 -13 22 -3 9 7 13 9 11 3 -3 -5 2 -18 12 -27 12 -12 19
-13 23 -5 3 9 5 9 5 0 1 -7 10 -13 20 -13 11 0 22 -9 26 -19 4 -13 13 -18 31
-16 13 1 27 -2 31 -8 3 -6 1 -7 -5 -3 -7 4 -12 3 -12 -2 0 -13 30 -26 69 -30
11 -2 11 -5 1 -17 -11 -13 -10 -14 5 -9 10 4 21 1 26 -7 7 -12 9 -12 9 0 0 9
6 7 19 -7 10 -12 26 -22 35 -22 10 0 15 -4 12 -9 -4 -5 2 -8 11 -7 19 3 93
-41 93 -55 0 -5 7 -9 16 -9 9 0 12 -5 8 -12 -4 -6 -3 -9 2 -6 5 3 19 2 32 -3
20 -7 21 -12 11 -30 -8 -15 -8 -19 0 -15 6 4 11 0 11 -9 0 -10 -5 -13 -12 -9
-7 4 -4 -3 7 -16 11 -13 15 -20 9 -17 -7 4 -14 0 -18 -8 -3 -8 -1 -15 3 -15 5
0 12 -7 15 -16 5 -13 4 -14 -7 -6 -10 9 -14 8 -14 -3 0 -8 4 -15 9 -15 5 0 6
-6 1 -12 -14 -24 -12 -76 3 -82 9 -3 12 -11 8 -18 -5 -8 -2 -9 11 -4 14 5 15
4 7 -7 -8 -10 -6 -13 8 -13 10 0 17 3 14 7 -5 9 22 20 30 12 8 -9 70 -8 84 1
8 5 10 2 6 -8 -3 -9 -1 -16 5 -16 6 0 11 5 11 11 0 5 5 7 12 3 7 -5 9 -2 5 9
-4 11 -2 14 8 11 8 -3 11 -13 9 -22 -5 -15 -4 -14 6 1 6 9 8 23 4 30 -5 7 0 6
11 -3 14 -11 17 -11 11 -1 -5 8 -3 17 5 23 10 7 8 8 -7 3 -23 -6 -26 11 -9 49
5 11 4 26 -4 38 -14 22 2 52 23 42 6 -3 1 3 -11 14 -27 23 -30 37 -7 28 9 -3
12 -2 9 5 -4 5 -2 16 5 24 8 10 8 15 0 20 -6 4 -14 4 -17 1 -4 -3 -1 -6 6 -6
7 0 9 -4 6 -10 -10 -16 -22 -12 -22 7 0 10 7 24 15 32 12 13 12 16 -2 26 -20
15 -21 29 -1 21 13 -5 14 -2 4 15 -7 13 -7 19 -1 15 6 -3 14 -2 17 4 4 6 1 9
-7 8 -7 -2 -12 3 -11 10 2 6 -2 12 -7 12 -6 0 -10 6 -10 14 0 8 -7 17 -16 20
-15 6 -15 4 -3 -11 13 -16 12 -17 -3 -4 -10 7 -18 20 -18 27 0 17 -12 18 -29
2 -10 -11 -12 -10 -9 2 2 8 -3 14 -11 12 -8 -2 -11 3 -8 12 4 10 1 13 -9 9 -7
-3 -14 1 -14 8 0 7 -3 9 -6 6 -8 -8 -63 21 -82 43 -12 13 -13 13 -7 0 4 -8 -1
-6 -9 4 -9 11 -16 16 -16 11 0 -5 -7 0 -16 11 -8 10 -13 12 -9 4 4 -10 1 -9
-8 3 -9 11 -22 15 -33 11 -16 -5 -16 -4 -4 5 11 8 11 11 3 12 -34 4 -38 6 -36
17 2 7 -4 9 -14 5 -10 -4 -14 -2 -10 4 4 6 0 14 -9 17 -8 3 -12 2 -9 -4 3 -6
-1 -7 -9 -4 -9 3 -13 10 -10 15 3 5 -4 9 -15 9 -12 0 -21 5 -21 10 0 6 -9 10
-20 10 -11 0 -20 5 -20 11 0 6 -7 9 -14 6 -10 -4 -13 -1 -9 9 3 9 -2 14 -17
14 -14 0 -19 4 -14 13 4 6 4 9 -1 5 -4 -4 -15 -2 -23 5 -13 10 -14 9 -7 -2 6
-10 4 -12 -4 -7 -7 5 -10 15 -7 23 3 8 1 11 -5 8 -5 -4 -17 -1 -26 7 -14 11
-16 11 -9 0 7 -11 4 -12 -13 -3 -11 6 -25 20 -31 31 -6 11 -16 17 -23 15 -6
-3 -19 0 -27 5 -13 9 -13 11 0 21 13 9 12 10 -2 5 -21 -6 -71 18 -60 29 4 5 1
5 -6 1 -8 -5 -19 -1 -28 10 -9 11 -12 13 -9 6 11 -20 -33 4 -58 32 -10 12 -16
16 -13 10 3 -6 -1 -11 -9 -11 -8 0 -12 4 -9 9 3 4 0 8 -6 8 -6 0 -8 5 -4 12 5
8 2 9 -9 5 -11 -4 -17 -1 -17 8 0 8 -5 15 -11 15 -5 0 -8 -4 -4 -9 3 -5 -8 -3
-25 5 -16 9 -30 18 -30 20 0 3 4 2 10 -1 5 -3 7 0 4 8 -2 7 -11 14 -19 14 -8
0 -12 -4 -10 -8 3 -4 -4 -5 -15 -2 -11 3 -20 10 -20 15 0 5 6 6 13 2 9 -6 8
-4 -1 8 -16 19 -72 21 -72 2z m60 2 c0 -3 -4 -8 -10 -11 -5 -3 -10 -1 -10 4 0
6 5 11 10 11 6 0 10 -2 10 -4z m-756 -414 c3 -5 -1 -9 -9 -9 -8 0 -12 4 -9 9
3 4 7 8 9 8 2 0 6 -4 9 -8z m296 -96 c0 -2 -7 -7 -16 -10 -8 -3 -12 -2 -9 4 6
10 25 14 25 6z m1306 -451 c-1 -14 -5 -27 -8 -30 -4 -5 -4 19 1 48 3 19 9 4 7
-18z"/>
<path d="M966 2388 c3 -5 10 -6 15 -3 13 9 11 12 -6 12 -8 0 -12 -4 -9 -9z"/>
<path d="M1725 2300 c3 -5 8 -10 11 -10 2 0 4 5 4 10 0 6 -5 10 -11 10 -5 0
-7 -4 -4 -10z"/>
<path d="M620 2190 c-9 -6 -10 -10 -3 -10 6 0 15 5 18 10 8 12 4 12 -15 0z"/>
<path d="M1510 2140 c0 -5 5 -10 11 -10 5 0 7 5 4 10 -3 6 -8 10 -11 10 -2 0
-4 -4 -4 -10z"/>
<path d="M1267 1997 c4 -7 0 -8 -11 -4 -14 6 -17 3 -12 -9 6 -15 4 -15 -11 -3
-11 9 -14 10 -9 2 4 -7 2 -13 -3 -13 -20 0 -26 -3 -37 -18 -7 -9 -16 -12 -24
-7 -10 6 -12 4 -7 -9 5 -14 3 -17 -8 -13 -8 4 -17 2 -21 -4 -3 -6 -12 -8 -19
-5 -9 3 -12 -2 -10 -15 2 -11 0 -17 -6 -13 -5 3 -17 0 -26 -8 -12 -9 -15 -9
-9 -1 5 9 2 11 -8 7 -9 -3 -14 -11 -13 -17 1 -7 -4 -11 -10 -10 -7 2 -13 -1
-13 -6 0 -5 -7 -12 -16 -15 -10 -4 -13 -2 -9 7 4 6 0 4 -8 -5 -8 -10 -16 -15
-20 -12 -3 3 -8 -4 -12 -17 -6 -17 -9 -19 -16 -8 -8 12 -11 11 -22 -2 -6 -9
-19 -14 -27 -11 -13 5 -13 3 0 -13 10 -12 10 -16 2 -11 -7 4 -19 2 -27 -4 -8
-6 -20 -8 -26 -4 -7 4 -9 3 -6 -3 4 -6 -5 -19 -19 -28 -15 -9 -23 -12 -19 -5
4 7 -4 5 -17 -4 -14 -9 -29 -13 -33 -9 -5 5 -3 -1 5 -11 10 -14 11 -17 2 -12
-7 4 -19 2 -27 -4 -8 -7 -21 -10 -29 -7 -10 4 -13 1 -9 -9 3 -9 -1 -14 -12
-14 -11 0 -15 -5 -11 -15 3 -8 1 -15 -5 -15 -6 0 -8 -4 -5 -9 4 -5 0 -12 -6
-14 -10 -4 -10 -6 0 -6 6 -1 12 -8 12 -16 0 -8 -6 -15 -12 -15 -9 0 -9 -3 1
-9 12 -8 12 -12 2 -25 -16 -19 -1 -21 19 -3 10 8 9 5 -1 -8 -9 -11 -20 -27
-24 -35 -7 -12 -6 -13 6 -3 13 10 15 8 13 -18 -1 -17 -5 -33 -8 -36 -3 -4 -1
-12 5 -19 7 -8 6 -14 -2 -20 -8 -5 -10 -3 -4 7 5 8 4 11 0 6 -14 -12 -14 -48
-1 -37 11 8 12 -2 7 -53 -1 -5 -7 -5 -13 -1 -7 4 -5 -2 5 -13 14 -16 15 -23 6
-29 -8 -5 -10 -3 -4 6 5 8 4 11 -3 6 -6 -4 -9 -13 -6 -21 4 -8 9 -13 13 -10 7
4 7 -16 2 -58 -1 -5 -7 -5 -13 -1 -7 4 -5 -2 5 -13 14 -16 15 -23 6 -29 -8 -5
-10 -3 -4 6 5 8 4 11 -3 6 -6 -4 -9 -13 -6 -21 4 -8 9 -13 13 -10 7 4 7 -16 2
-58 -1 -5 -7 -5 -13 -1 -7 4 -5 -2 5 -13 14 -16 15 -23 6 -29 -8 -5 -10 -3 -4
6 5 8 4 11 -2 7 -11 -7 -10 -43 2 -54 4 -5 5 -3 1 4 -3 6 -2 14 3 17 9 6 7
-45 -3 -62 -3 -6 -2 -13 4 -17 6 -4 3 -16 -7 -33 -14 -21 -14 -24 -2 -15 13
10 15 8 13 -17 -1 -16 -5 -33 -8 -39 -4 -5 -2 -12 4 -16 6 -4 3 -16 -7 -33
-14 -21 -14 -24 -2 -15 13 10 15 8 13 -18 -1 -17 -5 -33 -8 -36 -3 -4 -1 -12
5 -19 7 -8 7 -14 -1 -19 -5 -3 -10 -11 -10 -16 0 -6 3 -8 8 -6 4 3 7 -10 7
-28 0 -19 -2 -33 -5 -33 -17 1 -24 -3 -13 -10 12 -8 26 -72 15 -71 -18 3 -26
-2 -15 -9 6 -4 13 -22 16 -40 3 -17 1 -30 -3 -27 -5 3 -11 1 -15 -5 -3 -5 -1
-10 5 -10 6 0 9 -3 7 -7 -10 -17 13 -55 29 -49 10 4 13 2 8 -6 -5 -8 -2 -9 9
-5 10 3 16 2 14 -4 -1 -6 9 -18 23 -27 13 -9 21 -11 17 -5 -6 9 -3 11 7 7 9
-3 13 -10 10 -15 -3 -5 2 -9 10 -9 9 0 16 -4 16 -9 0 -6 9 -8 20 -6 11 2 19
-1 17 -8 -1 -7 4 -11 12 -9 12 3 12 1 0 -14 -13 -16 -12 -16 10 -5 13 7 21 9
18 4 -3 -4 2 -15 11 -23 14 -13 15 -12 9 3 -6 15 -4 16 13 7 11 -6 20 -13 20
-16 0 -3 -4 -2 -10 1 -5 3 -10 4 -10 1 0 -3 10 -10 21 -17 17 -9 20 -8 14 3
-3 7 -1 6 7 -3 7 -9 19 -14 27 -11 8 3 11 0 7 -7 -4 -6 -2 -11 4 -11 6 0 9 -4
6 -8 -3 -5 1 -9 9 -9 8 0 11 5 8 11 -4 6 3 3 15 -7 12 -12 26 -16 34 -11 10 6
10 4 -1 -9 -12 -15 -12 -17 3 -11 9 3 16 1 16 -6 0 -6 5 -8 10 -5 6 4 23 -5
37 -19 14 -14 35 -26 45 -26 13 0 18 -5 15 -14 -4 -9 2 -13 16 -12 23 1 51
-19 44 -31 -3 -5 13 -9 34 -10 21 -1 39 3 39 8 0 6 -5 7 -12 3 -7 -5 -8 -3 -4
5 5 7 14 10 22 7 8 -3 13 -2 13 2 -3 20 3 23 18 11 14 -12 16 -12 8 0 -6 11
-4 13 9 8 10 -4 15 -3 11 3 -3 6 -1 10 5 10 6 0 8 5 4 13 -5 7 0 6 11 -3 10
-8 16 -10 12 -4 -4 7 1 18 10 25 12 10 14 10 9 2 -4 -7 -2 -13 3 -13 6 0 11 5
11 11 0 5 4 8 9 4 5 -3 16 3 23 13 7 11 21 18 30 16 11 -1 15 3 11 14 -4 10
-2 13 5 8 7 -4 12 -2 12 3 0 6 3 10 8 9 4 -1 17 3 28 10 12 6 24 8 28 4 4 -3
4 2 0 13 -4 11 -4 17 1 13 4 -4 15 -2 23 5 13 10 15 9 8 -3 -4 -9 -2 -8 7 2 8
10 18 14 22 10 5 -4 6 0 2 10 -4 12 0 15 18 13 15 -1 22 2 18 8 -4 6 0 8 11 4
11 -5 15 -3 10 5 -5 7 -2 9 9 5 12 -4 14 -2 10 11 -3 9 -3 14 2 10 4 -4 15 -2
23 5 13 10 14 9 7 -2 -5 -10 -4 -12 3 -7 7 4 12 15 13 24 0 11 3 12 6 5 2 -7
9 -13 14 -13 6 0 8 3 6 8 -3 4 7 16 21 26 14 11 22 14 18 8 -4 -7 -2 -12 3
-12 10 0 15 14 12 32 0 4 6 5 14 2 8 -4 15 -1 15 6 0 9 4 9 18 -1 9 -7 14 -9
10 -5 -4 5 4 19 19 32 20 17 29 20 35 11 5 -8 8 -6 8 7 0 15 3 16 15 6 13 -11
14 -10 9 5 -5 13 -4 16 4 11 8 -4 12 0 12 11 0 15 2 16 10 3 6 -10 10 -11 10
-2 0 6 6 12 14 12 8 0 21 7 30 15 8 9 21 14 28 13 7 -2 12 4 12 13 -1 10 6 16
20 15 12 -1 20 4 18 12 -2 10 2 10 17 2 14 -7 22 -7 27 2 4 7 3 8 -4 4 -7 -4
-12 -3 -12 2 0 11 57 36 78 35 8 -1 11 5 8 13 -3 8 1 14 8 14 8 0 17 6 19 13
4 8 6 7 6 -3 1 -11 8 -7 24 10 12 14 18 20 13 13 -5 -8 -4 -13 2 -13 13 0 24
28 16 43 -3 7 2 3 11 -8 17 -20 17 -20 10 2 -5 19 -3 22 12 17 16 -6 16 -5 -2
9 -13 10 -20 28 -21 56 -1 23 2 41 6 41 4 0 10 7 13 14 4 10 1 13 -7 10 -17
-7 -16 27 2 45 12 13 12 16 -2 26 -20 15 -21 29 -2 22 11 -4 13 -1 9 10 -5 12
-3 14 7 8 8 -5 11 -4 6 3 -4 6 -12 9 -19 6 -7 -2 -13 4 -14 16 -1 11 3 20 8
20 6 0 7 -5 3 -12 -4 -7 -3 -8 4 -4 9 5 9 13 2 26 -13 23 -13 33 -1 25 6 -3 8
4 4 17 -3 13 -5 34 -5 48 -1 14 -3 19 -5 12 -3 -6 -10 -9 -16 -5 -17 11 -37
12 -37 3 0 -4 -7 -10 -14 -13 -11 -4 -13 -1 -9 11 5 14 3 14 -17 -3 -13 -11
-20 -14 -16 -7 8 13 -6 17 -18 5 -13 -13 -37 -11 -43 3 -3 8 -10 14 -15 14 -6
0 -8 -6 -5 -13 6 -15 -19 -16 -43 -2 -8 4 -12 5 -8 0 4 -4 3 -14 -3 -21 -7 -8
-6 -14 2 -20 7 -4 9 -3 6 3 -3 5 0 10 8 10 11 0 12 -3 3 -14 -6 -8 -18 -11
-27 -8 -9 3 -5 -4 9 -16 14 -11 19 -18 13 -14 -7 3 -13 1 -13 -5 0 -6 -4 -8
-10 -5 -5 3 -10 4 -10 0 0 -3 10 -10 23 -15 19 -8 20 -9 3 -9 -20 -1 -20 -1 0
-17 10 -8 14 -13 7 -10 -6 4 -14 2 -18 -4 -3 -5 -1 -10 4 -10 6 0 11 -5 11
-11 0 -5 -4 -8 -8 -5 -5 3 -9 -1 -9 -9 0 -8 4 -12 9 -9 4 3 8 -2 8 -11 0 -10
-5 -13 -12 -9 -7 4 -4 -3 7 -16 11 -13 15 -20 9 -17 -7 4 -14 0 -18 -8 -3 -8
0 -15 6 -15 15 0 0 -15 -15 -15 -7 -1 -11 -7 -9 -15 3 -11 0 -11 -12 0 -13 10
-16 10 -16 -4 0 -9 -5 -15 -12 -13 -7 1 -13 -4 -14 -10 -1 -7 -2 -16 -3 -19 0
-4 -8 -1 -16 6 -11 9 -15 9 -15 1 0 -7 -5 -9 -12 -5 -7 5 -9 2 -5 -9 4 -11 2
-14 -7 -11 -7 3 -16 -2 -20 -11 -4 -12 -10 -14 -26 -5 -16 8 -18 8 -14 -4 3
-8 0 -17 -7 -22 -8 -5 -10 -3 -4 7 7 11 6 12 -7 2 -8 -7 -18 -9 -22 -5 -4 4
-6 1 -4 -7 2 -8 -6 -17 -17 -19 -11 -2 -25 -10 -31 -17 -6 -8 -17 -15 -25 -17
-7 -2 -20 -10 -27 -18 -12 -13 -13 -13 -7 0 4 8 -1 6 -10 -5 -9 -11 -19 -20
-23 -20 -4 0 -6 -4 -4 -8 1 -4 -7 -3 -19 4 -15 8 -19 8 -15 0 4 -6 2 -11 -4
-11 -6 0 -8 -5 -4 -12 4 -6 3 -8 -4 -4 -6 3 -14 1 -17 -5 -4 -5 -14 -8 -22 -5
-10 4 -13 2 -10 -8 3 -8 0 -17 -8 -20 -10 -3 -12 0 -9 12 3 9 -2 6 -10 -8 -8
-14 -15 -19 -16 -12 0 7 -5 10 -10 7 -6 -4 -8 -10 -5 -15 3 -4 -2 -11 -11 -14
-10 -4 -13 -2 -8 6 5 7 3 8 -5 4 -7 -5 -10 -14 -7 -22 4 -12 2 -12 -14 -4 -16
9 -22 7 -26 -5 -4 -9 -13 -14 -20 -11 -9 3 -11 0 -7 -11 4 -10 2 -14 -5 -9 -6
3 -13 2 -17 -4 -9 -15 -28 -12 -19 3 4 7 3 9 -2 4 -5 -5 -9 -13 -9 -18 0 -5
-3 -8 -7 -6 -4 1 -14 -7 -22 -18 -9 -12 -15 -15 -16 -7 0 10 -3 10 -14 0 -8
-7 -12 -16 -10 -20 2 -4 -1 -10 -7 -14 -8 -4 -9 -3 -5 4 4 7 2 12 -3 12 -6 0
-11 -5 -11 -11 0 -5 -4 -7 -10 -4 -5 3 -10 1 -10 -5 0 -7 -7 -9 -16 -6 -8 3
-13 2 -10 -3 6 -10 -32 -30 -56 -29 -10 1 -14 7 -10 16 3 9 1 13 -5 9 -6 -4
-13 -1 -16 7 -3 8 -16 12 -32 11 -23 -3 -24 -1 -13 13 11 13 10 15 -9 10 -14
-4 -24 -1 -27 8 -3 8 -12 14 -21 14 -8 0 -15 5 -15 11 0 8 -5 7 -15 -1 -13
-11 -14 -10 -10 3 4 8 1 18 -6 23 -8 5 -10 3 -4 -5 5 -9 1 -9 -14 1 -12 7 -21
16 -21 20 0 4 -7 5 -15 1 -10 -3 -15 -1 -13 7 2 7 -3 15 -11 18 -8 3 -11 0 -7
-7 5 -7 1 -9 -8 -5 -9 3 -14 10 -11 14 3 4 -3 14 -12 21 -14 12 -16 12 -9 -1
4 -8 -1 -4 -12 10 -12 14 -24 21 -28 17 -4 -4 -2 -7 4 -7 7 0 12 -6 12 -12 -1
-7 -9 -3 -19 9 -10 12 -20 20 -22 18 -4 -4 -1 91 4 135 2 14 -4 33 -12 43 -13
16 -13 17 0 12 10 -4 15 1 15 14 0 11 -4 17 -8 15 -10 -6 -10 -6 1 34 6 20 6
30 0 27 -12 -8 -11 6 1 25 5 9 5 19 -2 27 -6 7 -6 13 -1 13 5 0 9 9 9 19 0 11
-4 17 -8 15 -10 -6 -10 -6 1 34 6 20 6 30 0 27 -5 -4 -9 1 -9 10 0 10 5 13 13
9 8 -5 8 -2 -2 9 -7 9 -9 17 -4 17 15 0 8 40 -8 51 -12 7 -11 9 2 9 16 0 20
33 6 46 -9 10 -9 26 1 21 9 -6 8 85 -2 101 -4 7 -3 12 2 12 10 0 8 47 -2 57
-3 3 2 12 12 20 15 11 15 12 1 7 -20 -6 -34 11 -18 22 8 4 9 3 5 -4 -5 -8 -1
-10 10 -5 15 5 15 7 0 15 -11 6 -13 14 -6 32 5 13 6 33 3 45 -3 12 1 29 8 39
12 15 12 16 -2 4 -14 -10 -18 -10 -23 3 -4 11 -2 14 6 9 7 -5 9 0 6 14 -3 12
-3 21 1 20 22 -2 41 4 36 12 -4 6 6 10 22 11 15 0 22 3 15 6 -6 2 -10 9 -7 13
3 5 12 7 20 3 8 -3 15 0 15 7 0 6 5 8 10 5 6 -3 10 -1 10 5 0 6 5 8 12 4 8 -5
9 -2 4 12 -4 10 -4 15 0 11 4 -4 14 -1 22 6 13 10 14 9 7 -3 -8 -13 -6 -13 8
-2 9 8 22 10 29 6 10 -6 11 -5 1 7 -10 13 -10 16 2 17 8 1 22 3 30 4 8 1 11 6
8 11 -4 6 2 8 15 5 16 -5 20 -2 17 14 -4 17 -2 18 12 6 9 -7 14 -8 10 -2 -8
14 20 27 35 17 7 -3 8 -1 4 5 -3 6 3 16 15 22 17 10 20 9 13 -2 -4 -7 2 -5 13
5 12 10 22 14 24 8 2 -6 14 -12 26 -14 12 -2 31 -11 41 -20 10 -9 22 -14 27
-10 4 5 5 2 1 -4 -4 -8 -1 -13 8 -13 9 0 16 -8 16 -17 0 -15 2 -16 10 -3 6 10
10 11 10 3 0 -7 5 -13 11 -13 5 0 7 5 3 12 -4 7 -3 8 5 4 9 -6 9 -11 -1 -24
-11 -13 -11 -14 0 -8 8 5 22 1 34 -11 15 -12 19 -13 14 -3 -4 8 0 6 8 -4 12
-15 16 -16 16 -5 0 12 2 12 9 -1 6 -8 7 -18 4 -24 -3 -5 -1 -6 5 -2 7 4 12 1
12 -6 0 -9 3 -9 10 2 7 12 10 12 10 1 0 -7 6 -11 15 -8 8 4 17 1 21 -5 5 -7 2
-8 -6 -3 -9 6 -11 4 -6 -4 5 -7 15 -10 23 -7 8 3 11 2 8 -3 -5 -9 32 -27 48
-23 5 1 6 -2 2 -8 -4 -7 -13 -7 -28 0 -22 10 -22 10 1 -6 22 -17 29 -48 13
-59 -15 -9 -9 -46 7 -40 8 3 10 0 6 -6 -4 -6 0 -16 7 -21 10 -7 8 -8 -7 -4
-17 5 -20 2 -20 -24 0 -18 4 -29 11 -27 6 3 11 -3 11 -13 0 -10 -5 -16 -11
-13 -7 2 -11 -9 -11 -27 0 -22 4 -29 13 -25 9 3 11 0 7 -6 -4 -6 0 -16 7 -21
10 -7 8 -8 -7 -4 -17 5 -20 2 -20 -24 0 -18 4 -29 11 -27 6 3 11 -3 11 -13 0
-10 -5 -16 -11 -13 -7 2 -12 -3 -12 -11 0 -8 7 -12 16 -9 14 4 14 3 -1 -9 -15
-13 -15 -15 0 -25 15 -10 14 -11 -5 -8 -13 2 -26 -1 -29 -7 -5 -7 -2 -8 6 -3
8 5 11 3 8 -6 -3 -8 -11 -13 -17 -12 -6 2 -11 -1 -11 -7 0 -5 -7 -7 -15 -4 -9
4 -15 0 -15 -10 0 -9 -3 -15 -7 -14 -16 3 -64 -22 -58 -31 3 -5 0 -13 -6 -17
-8 -5 -9 -3 -4 6 6 10 4 11 -11 6 -10 -5 -24 -9 -31 -9 -6 0 -9 -7 -5 -16 3
-9 2 -13 -3 -9 -4 4 -14 0 -22 -10 -9 -10 -11 -11 -7 -2 7 13 6 13 -11 0 -10
-8 -21 -14 -24 -12 -3 1 -7 -2 -7 -8 -3 -21 -4 -22 -18 -11 -12 10 -17 8 -26
-9 -6 -12 -18 -19 -25 -16 -9 3 -12 0 -9 -8 3 -8 0 -17 -7 -22 -8 -4 -10 -3
-5 4 9 16 -7 15 -22 0 -9 -9 -12 -9 -12 0 0 7 -3 11 -7 11 -22 -4 -33 3 -33
19 0 14 -2 15 -10 2 -7 -11 -10 -11 -10 -2 0 7 -4 10 -10 7 -5 -3 -10 1 -10
11 0 14 -2 15 -17 3 -10 -7 -15 -10 -11 -5 10 12 -23 45 -39 39 -8 -3 -23 4
-34 16 -11 12 -24 19 -30 16 -5 -4 -9 1 -9 9 0 10 -6 13 -17 9 -12 -5 -14 -3
-9 8 4 8 1 6 -8 -4 -8 -11 -12 -25 -9 -33 3 -8 -1 -14 -8 -14 -10 -1 -9 -4 3
-10 12 -8 15 -17 9 -38 -3 -15 -6 -50 -6 -79 1 -29 -3 -50 -7 -46 -12 7 14
-40 27 -49 6 -5 4 -12 -5 -18 -8 -5 -10 -10 -4 -10 5 0 15 5 22 12 9 9 12 8
12 -5 0 -9 3 -16 8 -16 20 3 32 -2 26 -13 -5 -7 -3 -8 5 -4 7 5 19 0 27 -10 9
-11 12 -12 8 -4 -5 10 -1 9 14 -3 11 -11 25 -16 30 -13 6 3 12 -1 16 -9 3 -8
12 -15 19 -15 8 0 26 -11 40 -25 17 -18 28 -22 32 -14 6 8 10 7 16 -2 7 -11 9
-10 9 3 0 11 5 15 15 12 9 -4 15 0 15 10 0 9 3 15 8 15 20 -3 32 2 26 12 -5 8
-1 8 14 0 18 -10 20 -9 17 10 -3 12 -2 19 2 15 3 -3 13 0 21 7 9 7 13 7 9 1
-3 -6 9 -4 27 5 18 9 31 21 29 28 -3 7 3 10 16 6 16 -4 21 -1 21 13 0 16 2 17
10 4 9 -14 14 -7 11 13 -1 5 9 7 21 5 16 -2 23 2 22 12 -1 9 8 17 18 17 11 1
27 10 35 20 8 10 12 12 8 6 -9 -19 10 -16 26 4 12 14 12 16 0 8 -9 -5 -12 -4
-7 3 4 6 13 9 21 5 8 -3 15 0 15 5 0 6 9 9 19 7 15 -3 18 1 14 12 -4 11 -2 14
5 9 7 -4 12 -2 12 5 0 7 3 9 7 6 3 -4 12 1 20 11 8 9 12 11 8 5 -4 -8 0 -13
10 -13 9 0 14 4 11 9 -3 4 2 17 10 27 13 16 15 16 10 2 -6 -21 20 -14 28 8 3
8 12 14 21 14 8 0 15 5 15 11 0 5 6 7 13 3 7 -5 6 0 -3 11 -12 15 -12 17 -1
10 11 -6 13 -4 8 8 -3 9 0 18 9 21 14 5 14 8 0 27 -10 15 -12 28 -6 45 5 13 8
29 6 36 -11 35 -15 78 -7 73 5 -3 13 0 17 6 5 8 3 9 -6 4 -9 -5 -11 -1 -6 16
3 13 3 18 0 12 -9 -19 -20 -16 -20 6 0 11 4 17 8 15 4 -3 8 2 8 11 0 10 5 13
13 9 6 -4 4 2 -5 13 -19 21 -24 38 -9 28 10 -6 7 27 -4 45 -3 6 2 7 12 4 17
-5 17 -5 1 6 -20 12 -25 36 -6 24 7 -5 8 -3 3 6 -4 7 -2 16 5 20 9 5 9 9 1 14
-6 4 -11 2 -11 -3 0 -6 -4 -11 -8 -11 -4 0 -8 9 -8 19 0 11 4 17 8 15 4 -3 8
2 8 10 0 9 6 16 13 16 6 0 4 5 -5 11 -10 5 -18 15 -18 20 0 6 5 7 12 3 7 -5 8
-3 3 6 -4 7 -2 16 5 20 9 5 9 9 1 14 -6 4 -11 2 -11 -3 0 -6 -4 -11 -8 -11 -4
0 -8 9 -8 19 0 11 4 17 8 15 4 -3 8 2 8 10 0 9 6 16 13 16 6 0 4 5 -5 11 -10
5 -18 15 -18 20 0 6 4 8 9 5 5 -4 8 2 7 11 -2 9 -8 19 -14 21 -19 6 -14 22 6
16 9 -3 7 1 -6 8 -12 8 -19 18 -15 23 4 5 -1 3 -11 -5 -11 -8 -17 -10 -13 -3
5 7 -2 14 -15 19 -13 3 -35 15 -49 25 -14 10 -30 15 -34 11 -5 -4 -5 -1 -1 6
5 8 0 12 -13 12 -12 0 -21 7 -21 15 0 8 -6 12 -14 9 -8 -3 -17 0 -21 5 -3 6
-11 9 -16 6 -5 -3 -6 1 -3 10 5 11 2 14 -10 9 -11 -4 -16 -1 -16 12 0 15 -2
16 -9 5 -7 -11 -12 -9 -27 8 -23 28 -80 60 -69 39 3 -7 0 -5 -8 5 -8 9 -22 17
-31 17 -9 0 -16 8 -16 18 0 14 -2 15 -10 2 -7 -11 -10 -11 -10 -2 0 7 -5 10
-12 6 -6 -4 -8 -3 -5 3 4 6 -1 17 -10 24 -14 12 -16 12 -8 -1 5 -9 -1 -7 -15
5 -15 13 -20 14 -16 5 5 -8 -2 -3 -15 11 -24 25 -66 48 -54 29 3 -6 -1 -7 -9
-4 -9 3 -13 11 -9 17 4 6 0 8 -10 4 -10 -4 -16 -2 -14 5 1 5 -6 12 -16 13 -10
2 -14 -1 -10 -8z m638 -445 c-3 -3 -11 0 -18 7 -9 10 -8 11 6 5 10 -3 15 -9
12 -12z m-230 -132 c3 -5 1 -10 -4 -10 -6 0 -11 5 -11 10 0 6 2 10 4 10 3 0 8
-4 11 -10z m0 -80 c3 -5 1 -10 -4 -10 -6 0 -11 5 -11 10 0 6 2 10 4 10 3 0 8
-4 11 -10z m0 -80 c3 -5 1 -10 -4 -10 -6 0 -11 5 -11 10 0 6 2 10 4 10 3 0 8
-4 11 -10z m0 -80 c3 -5 1 -10 -4 -10 -6 0 -11 5 -11 10 0 6 2 10 4 10 3 0 8
-4 11 -10z m235 -122 c0 -19 -16 -5 -17 14 -2 18 0 20 7 8 5 -8 10 -18 10 -22z
m465 -30 c14 -29 14 -31 0 -14 -8 11 -15 24 -15 29 0 4 -5 5 -12 1 -7 -4 -8
-3 -4 4 11 17 14 15 31 -20z m-460 -48 c3 -5 -1 -10 -10 -10 -9 0 -13 5 -10
10 3 6 8 10 10 10 2 0 7 -4 10 -10z m-445 -866 c0 -8 -19 -13 -24 -6 -3 5 1 9
9 9 8 0 15 -2 15 -3z"/>
<path d="M1993 1854 c0 -8 2 -12 5 -9 3 2 13 0 23 -6 27 -14 24 -4 -4 14 -20
13 -24 13 -24 1z"/>
<path d="M1330 1684 c0 -8 5 -12 10 -9 6 4 8 11 5 16 -9 14 -15 11 -15 -7z"/>
<path d="M2380 1660 c0 -5 5 -10 11 -10 5 0 7 5 4 10 -3 6 -8 10 -11 10 -2 0
-4 -4 -4 -10z"/>
<path d="M2380 1580 c0 -5 5 -10 11 -10 5 0 7 5 4 10 -3 6 -8 10 -11 10 -2 0
-4 -4 -4 -10z"/>
<path d="M406 1558 c3 -4 9 -8 15 -8 5 0 9 4 9 8 0 5 -7 9 -15 9 -8 0 -12 -4
-9 -9z"/>
<path d="M405 1360 c3 -5 8 -10 11 -10 2 0 4 5 4 10 0 6 -5 10 -11 10 -5 0 -7
-4 -4 -10z"/>
<path d="M155 1310 c4 -6 11 -8 16 -5 14 9 11 15 -7 15 -8 0 -12 -5 -9 -10z"/>
<path d="M2390 820 c-9 -6 -10 -10 -3 -10 6 0 15 5 18 10 8 12 4 12 -15 0z"/>
<path d="M2380 756 c0 -2 7 -7 16 -10 8 -3 12 -2 9 4 -6 10 -25 14 -25 6z"/>
<path d="M2380 700 c0 -5 5 -10 11 -10 5 0 7 5 4 10 -3 6 -8 10 -11 10 -2 0
-4 -4 -4 -10z"/>
</g>
</svg>
