<?xml version="1.0" standalone="no"?>
<!DOCTYPE svg PUBLIC "-//W3C//DTD SVG 20010904//EN"
 "http://www.w3.org/TR/2001/REC-SVG-20010904/DTD/svg10.dtd">
<svg version="1.0" xmlns="http://www.w3.org/2000/svg"
 width="251.000000pt" height="251.000000pt" viewBox="0 0 251.000000 251.000000"
 preserveAspectRatio="xMidYMid meet">
<metadata>
Created by potrace 1.14, written by Peter Selinger 2001-2017
</metadata>
<g transform="translate(0.000000,251.000000) scale(0.100000,-0.100000)"
fill="#000000" stroke="none">
<path d="M1215 2491 c-73 -43 -284 -166 -325 -189 -25 -14 -85 -48 -135 -77
-49 -29 -106 -62 -125 -73 -315 -178 -460 -267 -460 -281 -1 -26 -1 -581 -1
-642 l1 -57 173 -100 c94 -55 174 -98 176 -96 3 3 5 226 2 260 -1 5 -27 25
-59 43 l-57 32 1 217 c2 249 0 230 17 234 10 2 152 82 268 151 50 29 429 248
498 287 l64 37 261 -152 c144 -83 333 -193 422 -243 l161 -93 0 -130 c0 -71 2
-132 5 -134 4 -4 139 -8 203 -6 l30 1 0 200 c0 119 -4 203 -10 209 -5 5 -98
60 -205 121 -107 62 -269 155 -360 208 -91 52 -183 105 -205 118 -22 12 -98
56 -170 98 -71 42 -132 76 -135 75 -3 0 -18 -8 -35 -18z"/>
<path d="M1110 1889 c-74 -43 -210 -122 -302 -175 -108 -61 -168 -102 -169
-112 -1 -22 -1 -1202 0 -1224 1 -10 37 -38 94 -71 249 -145 514 -297 519 -297
2 0 130 73 284 161 313 181 280 162 509 294 94 54 197 114 230 134 l60 36 0
199 c0 109 -4 200 -8 203 -7 4 -146 7 -212 4 -19 -1 -20 -8 -20 -137 l0 -135
-130 -76 c-71 -41 -148 -85 -170 -98 -155 -88 -503 -290 -519 -301 -22 -15
-14 -19 -263 126 l-142 82 1 487 0 488 181 104 c99 57 186 105 193 107 7 2 96
-45 198 -104 l186 -106 0 -218 0 -218 -132 -77 c-73 -43 -153 -89 -178 -103
-25 -13 -50 -28 -55 -33 -6 -4 -28 2 -50 15 -22 13 -80 46 -129 74 -49 29 -91
50 -93 48 -3 -2 -5 -62 -6 -133 l-2 -130 133 -77 134 -77 181 104 c100 58 200
115 222 127 22 12 45 26 50 30 6 4 30 19 55 32 25 14 59 34 77 44 l32 19 0
351 c0 382 3 358 -54 390 -11 6 -142 81 -291 167 -150 87 -273 157 -275 156
-2 0 -65 -36 -139 -80z"/>
</g>
</svg>
